<svg version="1.1" id="Layer_1" xmlns="http://www.w3.org/2000/svg" xmlns:xlink="http://www.w3.org/1999/xlink" x="0px" y="0px"
	 width="100%" viewBox="0 0 128 112" enable-background="new 0 0 128 112" xml:space="preserve">
<path fill="#000000" opacity="1.000000" stroke="none" 
	d="
M49.428463,113.000000 
	C45.833336,110.862762 42.534798,108.895653 39.521812,106.560150 
	C22.361172,93.258186 14.436189,71.087898 20.141201,51.007690 
	C26.478077,28.703482 41.213566,15.237238 64.240860,11.545004 
	C93.356201,6.876604 120.590698,27.289474 124.413292,56.555527 
	C127.436096,79.698395 118.634529,97.395607 99.109886,109.935616 
	C97.854416,110.741959 96.658669,111.641289 95.217567,112.748688 
	C93.285645,113.000000 91.571281,113.000000 89.428467,113.000000 
	C91.432259,110.330078 94.980835,109.543358 97.938652,107.750641 
	C117.654694,95.800850 127.279129,71.331909 120.561737,49.844151 
	C113.325157,26.695639 91.795479,11.747648 68.106438,13.424613 
	C46.560101,14.949894 26.561642,31.921743 22.433710,52.185131 
	C17.611683,75.855743 27.636456,98.091270 48.010979,108.916748 
	C50.212330,110.086388 52.413895,111.255623 54.807678,112.712524 
	C53.285641,113.000000 51.571285,113.000000 49.428463,113.000000 
z"/>
<path fill="#000000" opacity="1.000000" stroke="none" 
	d="
M58.763885,44.358551 
	C60.543274,50.348301 58.914040,54.153660 54.348072,55.488163 
	C50.418171,56.636761 46.722034,54.659081 45.280041,50.616875 
	C43.952080,46.894318 45.339542,44.015171 48.421120,42.034012 
	C52.301594,39.539238 55.684261,40.778614 58.763885,44.358551 
z"/>
<path fill="#000000" opacity="1.000000" stroke="none" 
	d="
M89.469986,41.006142 
	C93.778419,40.436668 96.715714,41.846172 98.195549,45.596909 
	C99.493240,48.885983 98.733215,51.854633 96.034210,54.120274 
	C93.475204,56.268394 90.542000,56.354675 87.677200,54.775921 
	C81.945808,51.617432 82.660286,44.923016 89.469986,41.006142 
z"/>
<path fill="#000000" opacity="1.000000" stroke="none" 
	d="
M65.704247,68.477783 
	C62.109047,69.827385 60.473053,72.745010 58.517822,76.507301 
	C56.727585,71.755432 58.822922,69.680481 61.191040,67.960533 
	C67.103477,63.666348 75.385666,63.470325 81.391106,67.526222 
	C84.001122,69.288956 86.755585,71.250229 85.397789,76.187660 
	C80.566338,68.219284 74.271393,65.600754 65.704247,68.477783 
z"/>
</svg>