<svg version="1.1" id="Layer_1" xmlns="http://www.w3.org/2000/svg" xmlns:xlink="http://www.w3.org/1999/xlink" x="0px" y="0px"
	 width="100%" viewBox="0 0 128 128" enable-background="new 0 0 128 128" xml:space="preserve">
<path fill="#000000" opacity="1.000000" stroke="none" 
	d="
M119.805527,68.621788 
	C116.738022,95.180473 100.915619,112.568604 75.517998,117.655762 
	C45.677170,123.632881 16.094261,100.585281 13.503622,70.175171 
	C10.912200,39.755875 32.573936,18.095001 54.649261,13.108904 
	C85.988823,6.030317 116.679436,28.181154 119.430725,60.243561 
	C119.657745,62.889252 120.355240,65.502235 119.805527,68.621788 
M111.323769,41.183674 
	C98.650444,19.245352 74.067635,9.336896 51.229652,16.660851 
	C31.592419,22.958351 13.014971,43.041428 16.219975,71.172958 
	C19.497986,99.945297 47.366745,120.638298 75.604477,115.149094 
	C107.999687,108.851707 127.532478,73.434547 111.323769,41.183674 
z"/>
<path fill="#000000" opacity="1.000000" stroke="none" 
	d="
M55.897209,70.712730 
	C54.040939,66.548279 55.095440,64.732346 59.429596,64.846046 
	C64.249802,64.972504 69.078308,64.761749 73.900002,64.858032 
	C78.230362,64.944511 79.177795,66.521301 77.267929,70.489441 
	C75.427773,74.312767 72.475250,76.826431 68.089272,77.272644 
	C62.746067,77.816231 58.675259,75.841850 55.897209,70.712730 
z"/>
<path fill="#000000" opacity="1.000000" stroke="none" 
	d="
M51.335846,55.296345 
	C47.295315,57.570244 43.873726,57.084145 41.177982,53.843624 
	C39.056484,51.293400 39.105316,48.266518 40.686440,45.419846 
	C42.761555,41.683792 47.521244,40.663765 51.080208,43.046059 
	C55.143070,45.765644 55.368473,50.539124 51.335846,55.296345 
z"/>
<path fill="#000000" opacity="1.000000" stroke="none" 
	d="
M91.481415,54.288116 
	C88.176743,57.165913 84.914749,57.530743 81.597679,55.291546 
	C78.747948,53.367828 78.209145,50.416065 78.908775,47.298969 
	C79.597862,44.228851 81.810791,42.491467 84.828476,41.919205 
	C87.701447,41.374382 90.166016,42.351955 91.835892,44.729656 
	C93.969261,47.767292 93.962639,50.926395 91.481415,54.288116 
z"/>
</svg>