<svg version="1.1" id="Layer_1" xmlns="http://www.w3.org/2000/svg" xmlns:xlink="http://www.w3.org/1999/xlink" x="0px" y="0px"
	 width="100%" viewBox="0 0 736 736" enable-background="new 0 0 736 736" xml:space="preserve">
<path fill="#000000" opacity="1.000000" stroke="none" 
	d="
M611.087891,566.055664 
	C559.987488,627.634033 495.197815,664.833313 416.501190,676.862671 
	C355.649506,686.164307 296.710571,677.962280 241.082626,651.538696 
	C154.372299,610.350708 98.156815,542.827209 72.168983,450.448120 
	C63.778248,420.621582 60.374401,389.967224 61.930149,359.001526 
	C66.053711,276.925995 96.795219,206.382050 155.776077,148.956894 
	C204.312729,101.700478 262.587250,73.266403 329.878937,64.675171 
	C417.965942,53.428993 497.310486,75.576096 566.292908,131.380600 
	C625.687317,179.428772 662.485413,241.802414 675.301392,317.288177 
	C690.940735,409.403656 669.029846,492.318451 611.087891,566.055664 
M635.912598,222.533875 
	C619.150879,193.232086 598.781799,166.729431 573.142639,144.699448 
	C490.842712,73.984703 396.588715,51.539146 291.604004,78.195465 
	C228.310974,94.265976 176.201385,129.376495 135.130112,180.061646 
	C91.975830,233.317398 69.572075,294.655365 67.462891,363.192688 
	C66.467552,395.535889 70.634407,427.341583 80.176193,458.301514 
	C99.943283,522.439026 136.428574,575.087891 190.528198,614.845215 
	C261.515594,667.013245 341.049438,684.992859 427.455170,669.185547 
	C498.357941,656.214417 557.346741,621.156250 603.509155,565.769653 
	C659.515503,498.571960 681.925354,420.830597 672.416931,334.071564 
	C668.105286,294.730042 655.468445,257.811401 635.912598,222.533875 
z"/>
<path fill="#000000" opacity="1.000000" stroke="none" 
	d="
M423.092499,475.098511 
	C434.441803,466.512878 443.320343,456.296112 449.586761,443.870300 
	C449.886414,443.276184 450.195740,442.684418 450.541748,442.116638 
	C452.584595,438.764313 455.550781,437.537109 459.026947,439.392456 
	C462.450470,441.219696 462.577515,444.431091 461.032196,447.629944 
	C454.486267,461.180420 445.403198,472.715881 433.630615,482.152161 
	C384.704132,521.369202 311.158600,506.032959 282.481384,450.599487 
	C279.362579,444.570770 279.528137,440.929016 283.000122,439.191193 
	C286.660797,437.358856 289.573181,439.065308 292.850830,444.948822 
	C307.019440,470.382080 328.321503,486.436066 357.029358,491.109436 
	C380.813049,494.981171 403.066406,489.676147 423.092499,475.098511 
z"/>
<path fill="#000000" opacity="1.000000" stroke="none" 
	d="
M469.373108,367.663879 
	C491.446869,380.916351 516.668762,372.778381 526.440247,349.562653 
	C528.562073,344.521423 531.418152,342.684296 534.925598,344.354156 
	C539.318909,346.445770 538.742065,350.025574 537.456421,353.749908 
	C530.936279,372.638367 511.466888,386.190277 490.846130,386.177429 
	C469.960663,386.164429 450.372314,372.556122 443.803223,353.529297 
	C442.485626,349.713043 442.163391,345.997070 446.632050,344.289795 
	C451.033112,342.608368 453.373077,345.318695 454.875275,349.208435 
	C457.768066,356.698792 462.456696,362.839691 469.373108,367.663879 
z"/>
<path fill="#000000" opacity="1.000000" stroke="none" 
	d="
M299.829224,343.862335 
	C305.347351,345.739471 305.371429,349.611023 303.749176,353.685638 
	C297.118896,370.338745 285.051544,381.073761 267.560150,384.931305 
	C243.209991,390.301392 218.993835,377.031128 210.308701,354.130615 
	C208.428223,349.172272 209.262772,345.795837 212.741058,344.289795 
	C216.150009,342.813721 219.197479,344.672455 221.315308,349.566650 
	C227.946945,364.892059 239.277756,373.700378 256.258545,373.996979 
	C273.486298,374.297913 285.157440,365.653778 292.235779,350.334961 
	C293.743164,347.072693 295.093262,343.840881 299.829224,343.862335 
z"/>
<path fill="#000000" opacity="1.000000" stroke="none" 
	d="
M509.067078,405.665955 
	C509.890320,408.497498 508.073822,410.039795 506.762695,411.658630 
	C501.738983,417.861481 496.622375,423.989746 491.490936,430.104309 
	C490.115479,431.743317 488.530823,433.943604 486.158234,432.063721 
	C483.815155,430.207245 485.398071,428.241302 486.847931,426.501312 
	C492.279144,419.983276 497.677246,413.437653 503.117279,406.927032 
	C504.657654,405.083527 506.273895,403.232269 509.067078,405.665955 
z"/>
<path fill="#000000" opacity="1.000000" stroke="none" 
	d="
M191.030060,423.014099 
	C188.714096,425.858276 186.664276,428.465027 184.503708,430.976471 
	C183.237625,432.448090 181.649200,433.525787 179.796478,431.947174 
	C178.147293,430.542053 178.823929,428.886414 179.928802,427.534363 
	C185.801056,420.348358 191.713882,413.195221 197.658432,406.068909 
	C198.958206,404.510773 200.719513,403.749908 202.408447,405.298187 
	C203.946777,406.708405 203.160263,408.359650 202.039062,409.724426 
	C198.462448,414.078156 194.848953,418.401550 191.030060,423.014099 
z"/>
<path fill="#000000" opacity="1.000000" stroke="none" 
	d="
M533.114258,423.096436 
	C530.781982,425.945648 528.693420,428.538361 526.530151,431.067017 
	C525.375732,432.416473 523.884033,433.421997 522.190002,432.169403 
	C520.286499,430.761902 520.762756,428.967957 522.076721,427.378998 
	C527.910706,420.323822 533.772156,413.291260 539.632019,406.257477 
	C540.950745,404.674530 542.639160,403.825287 544.386047,405.275848 
	C546.026672,406.638184 545.210083,408.342560 544.108765,409.702820 
	C540.548462,414.100220 536.925659,418.446991 533.114258,423.096436 
z"/>
<path fill="#000000" opacity="1.000000" stroke="none" 
	d="
M198.989502,426.173187 
	C204.408752,419.593170 209.609299,413.308655 214.789124,407.007050 
	C216.235641,405.247314 217.932983,403.374268 220.158020,405.263550 
	C222.545593,407.290924 220.411987,409.160767 219.085754,410.785614 
	C213.821899,417.234680 208.501297,423.637390 203.215332,430.068481 
	C201.811508,431.776398 200.316040,433.902649 197.935150,431.999420 
	C195.479340,430.036346 197.469879,428.173035 198.989502,426.173187 
z"/>
<path fill="#000000" opacity="1.000000" stroke="none" 
	d="
M520.568115,416.551575 
	C516.525757,421.446655 512.723633,426.077332 508.870972,430.665558 
	C507.525513,432.267853 505.921295,433.776001 503.855713,431.849487 
	C502.067230,430.181549 503.177673,428.491425 504.401184,427.017670 
	C510.036804,420.229279 515.699219,413.463165 521.338196,406.677521 
	C522.726440,405.006989 524.402283,403.629700 526.401917,405.289856 
	C528.261047,406.833344 527.039917,408.631439 525.868286,410.108551 
	C524.214355,412.193756 522.485413,414.219391 520.568115,416.551575 
z"/>
<path fill="#000000" opacity="1.000000" stroke="none" 
	d="
M227.433456,413.446869 
	C229.564056,410.855957 231.465210,408.537781 233.391693,406.240845 
	C234.714462,404.663666 236.392197,403.853729 238.169205,405.236572 
	C239.880798,406.568512 239.160049,408.259705 238.027893,409.635193 
	C232.100067,416.837097 226.141846,424.014160 220.165817,431.176178 
	C218.985199,432.591125 217.454376,433.337860 215.809174,432.046265 
	C214.090576,430.696991 214.700714,429.019623 215.811661,427.637787 
	C219.568146,422.965576 223.407272,418.359833 227.433456,413.446869 
z"/>
</svg>