<svg version="1.1" id="Layer_1" xmlns="http://www.w3.org/2000/svg" xmlns:xlink="http://www.w3.org/1999/xlink" x="0px" y="0px"
	 width="100%" viewBox="0 0 128 128" enable-background="new 0 0 128 128" xml:space="preserve">
<path fill="#000000" opacity="1.000000" stroke="none" 
	d="
M61.680176,19.436211 
	C90.471359,15.982233 116.843231,37.127762 120.555267,65.203423 
	C124.671211,96.333977 101.484261,120.548523 78.451050,124.678802 
	C41.166451,131.364624 14.953818,102.387047 14.389515,73.765343 
	C13.788318,43.272369 38.021679,21.558605 61.680176,19.436211 
M48.827812,25.308596 
	C24.921093,35.228970 13.088651,58.814770 18.172674,82.852829 
	C23.549065,108.273239 45.051868,124.087563 70.998863,122.840736 
	C101.909927,121.355377 124.885063,90.328880 117.120552,60.556232 
	C109.257347,30.405136 79.018837,14.501082 48.827812,25.308596 
z"/>
<path fill="#000000" opacity="1.000000" stroke="none" 
	d="
M56.474865,58.803017 
	C53.161770,61.968647 49.444321,63.825443 44.772343,65.637016 
	C45.661530,60.628418 51.051361,61.335754 52.240646,57.791225 
	C51.603291,54.885937 47.566116,54.210445 47.298962,49.844772 
	C51.526821,52.198055 54.617470,54.669033 56.474865,58.803017 
z"/>
<path fill="#000000" opacity="1.000000" stroke="none" 
	d="
M83.689484,52.718647 
	C85.081795,51.671291 85.826065,50.083298 87.924538,50.645359 
	C88.146355,54.380573 83.592453,54.900501 82.884735,57.937084 
	C84.579910,60.976498 89.126015,60.835255 90.596741,64.961449 
	C86.008110,64.460220 82.917564,62.028576 79.783760,59.800560 
	C78.425423,58.834839 78.729942,57.505569 79.851990,56.404881 
	C81.033249,55.246113 82.241188,54.114536 83.689484,52.718647 
z"/>
<path fill="#000000" opacity="1.000000" stroke="none" 
	d="
M66.122833,68.648232 
	C69.748878,68.971741 73.048119,67.975883 76.328117,69.482536 
	C72.891113,71.907051 62.696991,72.047989 59.111668,69.785049 
	C61.095829,67.850121 63.520393,68.983818 66.122833,68.648232 
z"/>
</svg>