<svg version="1.1" id="Layer_1" xmlns="http://www.w3.org/2000/svg" xmlns:xlink="http://www.w3.org/1999/xlink" x="0px" y="0px"
	 width="100%" viewBox="0 0 128 128" enable-background="new 0 0 128 128" xml:space="preserve">
<path fill="#000000" opacity="1.000000" stroke="none" 
	d="
M60.252682,17.700821 
	C89.783386,15.671721 109.751495,35.464085 115.713341,53.951065 
	C127.168274,89.471489 100.666786,125.254608 63.343239,124.341866 
	C36.336388,123.681412 13.995723,102.186203 11.722552,74.674706 
	C9.534246,48.190285 28.711027,23.260658 54.870632,18.583952 
	C56.507786,18.291269 58.146366,18.006561 60.252682,17.700821 
M110.735634,48.812538 
	C99.914719,28.679771 80.046593,17.640524 58.931950,20.520279 
	C29.376337,24.551271 10.768246,50.703419 14.748253,77.757477 
	C19.275270,108.529846 48.244133,127.623131 77.419037,120.179092 
	C106.784744,112.686378 125.025574,80.236961 110.735634,48.812538 
z"/>
<path fill="#000000" opacity="1.000000" stroke="none" 
	d="
M69.632599,65.658722 
	C77.836342,65.576828 78.080070,65.895630 75.984695,73.374359 
	C73.975510,80.545479 69.127510,84.256737 63.177475,83.178574 
	C57.535236,82.156189 52.562771,74.506203 53.284790,68.211319 
	C53.550964,65.890701 54.990337,65.679771 56.755806,65.676552 
	C60.897064,65.668999 65.038330,65.664864 69.632599,65.658722 
z"/>
<path fill="#000000" opacity="1.000000" stroke="none" 
	d="
M48.918472,50.038239 
	C43.771866,48.052315 41.567158,52.029449 38.517513,55.008144 
	C37.315826,51.302746 39.157562,49.582779 41.365261,48.126747 
	C45.173973,45.614811 49.016953,46.319416 52.521667,48.635292 
	C55.218414,50.417274 56.945053,52.937660 55.594452,56.977612 
	C53.064011,54.752708 52.611778,51.017586 48.918472,50.038239 
z"/>
<path fill="#000000" opacity="1.000000" stroke="none" 
	d="
M89.242790,48.514938 
	C91.018837,50.284485 92.784782,51.690186 91.698662,54.701290 
	C88.595383,52.819687 87.001266,48.351414 82.480110,49.484154 
	C78.578987,50.461548 76.509659,53.201542 75.204048,57.064789 
	C72.919731,54.311337 74.262650,52.156185 75.832253,50.232399 
	C78.767990,46.634216 83.543755,45.998215 89.242790,48.514938 
z"/>
</svg>