<svg version="1.1" id="Layer_1" xmlns="http://www.w3.org/2000/svg" xmlns:xlink="http://www.w3.org/1999/xlink" x="0px" y="0px"
	 width="100%" viewBox="0 0 128 128" enable-background="new 0 0 128 128" xml:space="preserve">
<path fill="#000000" opacity="1.000000" stroke="none" 
	d="
M16.284595,42.480820 
	C26.683865,23.741899 42.424797,13.535720 63.333012,13.097617 
	C89.235092,12.554873 110.362656,29.936646 116.003349,53.742004 
	C123.150826,83.906425 104.843964,112.811180 74.489624,118.744476 
	C42.239594,125.048317 15.897105,102.670876 11.464224,74.879646 
	C9.652984,63.524364 12.017528,53.133282 16.284595,42.480820 
M17.369804,46.862698 
	C4.208696,79.968407 26.476522,115.182869 61.700211,116.967033 
	C95.363647,118.672188 121.458649,87.632858 113.598038,54.829216 
	C108.120270,31.969597 88.939278,15.421725 63.769375,15.727701 
	C42.650295,15.984434 26.763021,26.506128 17.369804,46.862698 
z"/>
<path fill="#000000" opacity="1.000000" stroke="none" 
	d="
M80.560066,38.308216 
	C78.786339,36.191624 77.042877,34.425362 76.873566,31.228703 
	C80.390549,32.188835 80.889656,35.738331 83.225586,36.836285 
	C87.761208,38.968155 89.150597,42.850826 90.477448,47.211254 
	C91.871826,51.793610 90.644646,55.735359 86.432579,57.507637 
	C82.587784,59.125378 78.196579,57.232098 76.638069,53.284695 
	C75.095825,49.378483 76.908356,45.303097 81.028175,43.534275 
	C82.085266,43.080425 83.214493,42.794605 84.424911,42.393723 
	C83.989777,40.306992 81.846008,39.937187 80.560066,38.308216 
z"/>
<path fill="#000000" opacity="1.000000" stroke="none" 
	d="
M48.650566,56.944592 
	C44.976215,58.796749 41.843616,58.671402 39.255764,55.808617 
	C37.253452,53.593571 36.387157,50.991505 37.543850,48.009460 
	C38.667313,45.113102 40.781067,43.378178 43.844334,43.105316 
	C47.330757,42.794754 49.897057,44.290226 51.422691,47.534637 
	C53.199467,51.313122 52.007935,54.252399 48.650566,56.944592 
z"/>
<path fill="#000000" opacity="1.000000" stroke="none" 
	d="
M64.759888,67.351288 
	C62.821644,67.065590 61.023186,67.921539 59.785637,66.288284 
	C65.460114,62.182228 78.967758,67.590385 81.040520,75.484444 
	C75.690636,72.051140 71.374733,67.682327 64.759888,67.351288 
z"/>
<path fill="#000000" opacity="1.000000" stroke="none" 
	d="
M41.459660,35.454140 
	C42.540386,34.256611 42.695229,32.629765 44.346035,32.482941 
	C45.282413,37.256527 41.143139,41.194706 34.513470,41.138416 
	C37.052231,39.099873 39.146648,37.418121 41.459660,35.454140 
z"/>
</svg>